<svg width="366" height="252" viewBox="0 0 366 252" fill="none" xmlns="http://www.w3.org/2000/svg">
<path d="M-5 119V38H30V50.1H12.9V70.5H27.8V83H12.9V119H-5ZM38.4594 119V38H56.3594V119H38.4594ZM75.7375 119V51.3H63.5375V38H105.838V51.3H93.7375V119H75.7375ZM112.969 119V38H125.569L142.169 77V38H156.969V119H144.869L128.269 77V119H112.969ZM169.023 119V38H205.423V50.2H186.923V70.3H201.023V82.7H186.923V106.9H205.623V119H169.023ZM235.25 120.2C230.183 120.2 225.95 119.3 222.55 117.5C219.15 115.7 216.583 112.933 214.85 109.2C213.117 105.4 212.15 100.5 211.95 94.5L227.25 92.2C227.317 95.6667 227.617 98.4667 228.15 100.6C228.75 102.733 229.55 104.267 230.55 105.2C231.617 106.133 232.883 106.6 234.35 106.6C236.217 106.6 237.417 105.967 237.95 104.7C238.55 103.433 238.85 102.1 238.85 100.7C238.85 97.3667 238.05 94.5667 236.45 92.3C234.85 89.9667 232.683 87.6333 229.95 85.3L222.95 79.2C219.883 76.6 217.283 73.6667 215.15 70.4C213.083 67.0667 212.05 62.9667 212.05 58.1C212.05 51.2333 214.083 46 218.15 42.4C222.217 38.7333 227.75 36.9 234.75 36.9C239.083 36.9 242.55 37.6333 245.15 39.1C247.817 40.5667 249.817 42.5 251.15 44.9C252.55 47.2333 253.483 49.7333 253.95 52.4C254.483 55 254.783 57.5 254.85 59.9L239.45 61.8C239.383 59.4 239.217 57.3333 238.95 55.6C238.75 53.8 238.283 52.4333 237.55 51.5C236.817 50.5 235.683 50 234.15 50C232.483 50 231.25 50.7 230.45 52.1C229.717 53.5 229.35 54.9 229.35 56.3C229.35 59.3 230.05 61.7667 231.45 63.7C232.917 65.5667 234.817 67.5333 237.15 69.6L243.85 75.5C247.383 78.5 250.35 81.9 252.75 85.7C255.217 89.5 256.45 94.2 256.45 99.8C256.45 103.6 255.583 107.067 253.85 110.2C252.117 113.267 249.65 115.7 246.45 117.5C243.317 119.3 239.583 120.2 235.25 120.2ZM285.055 120.2C279.988 120.2 275.755 119.3 272.355 117.5C268.955 115.7 266.388 112.933 264.655 109.2C262.921 105.4 261.955 100.5 261.755 94.5L277.055 92.2C277.121 95.6667 277.421 98.4667 277.955 100.6C278.555 102.733 279.355 104.267 280.355 105.2C281.421 106.133 282.688 106.6 284.155 106.6C286.021 106.6 287.221 105.967 287.755 104.7C288.355 103.433 288.655 102.1 288.655 100.7C288.655 97.3667 287.855 94.5667 286.255 92.3C284.655 89.9667 282.488 87.6333 279.755 85.3L272.755 79.2C269.688 76.6 267.088 73.6667 264.955 70.4C262.888 67.0667 261.855 62.9667 261.855 58.1C261.855 51.2333 263.888 46 267.955 42.4C272.021 38.7333 277.555 36.9 284.555 36.9C288.888 36.9 292.355 37.6333 294.955 39.1C297.621 40.5667 299.621 42.5 300.955 44.9C302.355 47.2333 303.288 49.7333 303.755 52.4C304.288 55 304.588 57.5 304.655 59.9L289.255 61.8C289.188 59.4 289.021 57.3333 288.755 55.6C288.555 53.8 288.088 52.4333 287.355 51.5C286.621 50.5 285.488 50 283.955 50C282.288 50 281.055 50.7 280.255 52.1C279.521 53.5 279.155 54.9 279.155 56.3C279.155 59.3 279.855 61.7667 281.255 63.7C282.721 65.5667 284.621 67.5333 286.955 69.6L293.655 75.5C297.188 78.5 300.155 81.9 302.555 85.7C305.021 89.5 306.255 94.2 306.255 99.8C306.255 103.6 305.388 107.067 303.655 110.2C301.921 113.267 299.455 115.7 296.255 117.5C293.121 119.3 289.388 120.2 285.055 120.2Z" fill="white" fill-opacity="0.6"/>
<path d="M2.3 223V155.3H-9.9V142H32.4V155.3H20.3V223H2.3ZM39.5313 223V142H61.8313C67.2979 142 72.0313 142.6 76.0313 143.8C80.0313 145 83.1313 147.167 85.3313 150.3C87.5979 153.367 88.7313 157.733 88.7313 163.4C88.7313 166.733 88.4646 169.7 87.9313 172.3C87.3979 174.9 86.3979 177.167 84.9312 179.1C83.5313 180.967 81.4979 182.533 78.8313 183.8L89.9313 223H71.4313L62.5313 186.7H57.4313V223H39.5313ZM57.4313 176.4H62.4313C64.9646 176.4 66.9313 175.967 68.3313 175.1C69.7313 174.167 70.6979 172.867 71.2313 171.2C71.8313 169.467 72.1313 167.4 72.1313 165C72.1313 161.533 71.4979 158.833 70.2313 156.9C68.9646 154.967 66.6313 154 63.2313 154H57.4313V176.4ZM95.5922 223L110.892 142H131.292L146.392 223H129.892L127.192 205.9H115.292L112.492 223H95.5922ZM116.892 195.2H125.492L121.192 163.6L116.892 195.2ZM176.501 224.2C170.367 224.2 165.501 223.1 161.901 220.9C158.367 218.633 155.867 215.5 154.401 211.5C152.934 207.433 152.201 202.667 152.201 197.2V168C152.201 162.4 152.934 157.6 154.401 153.6C155.867 149.533 158.367 146.4 161.901 144.2C165.501 142 170.367 140.9 176.501 140.9C182.501 140.9 187.167 141.9 190.501 143.9C193.901 145.833 196.301 148.567 197.701 152.1C199.101 155.633 199.801 159.7 199.801 164.3V171.3H182.301V163.2C182.301 161.6 182.201 160.067 182.001 158.6C181.867 157.133 181.401 155.933 180.601 155C179.801 154 178.434 153.5 176.501 153.5C174.634 153.5 173.234 154 172.301 155C171.434 156 170.867 157.267 170.601 158.8C170.401 160.267 170.301 161.833 170.301 163.5V201.6C170.301 203.4 170.434 205.067 170.701 206.6C171.034 208.067 171.634 209.267 172.501 210.2C173.434 211.067 174.767 211.5 176.501 211.5C178.367 211.5 179.701 211.033 180.501 210.1C181.301 209.1 181.801 207.833 182.001 206.3C182.201 204.767 182.301 203.2 182.301 201.6V193.1H199.801V200.1C199.801 204.7 199.101 208.833 197.701 212.5C196.367 216.1 194.001 218.967 190.601 221.1C187.267 223.167 182.567 224.2 176.501 224.2ZM209.648 223V142H227.548V175.1L241.148 142H258.648L243.648 178.6L259.348 223H241.148L229.448 187.2L227.548 190.4V223H209.648ZM266.387 223V142H302.787V154.2H284.287V174.3H298.387V186.7H284.287V210.9H302.987V223H266.387ZM311.113 223V142H333.413C338.88 142 343.613 142.6 347.613 143.8C351.613 145 354.713 147.167 356.913 150.3C359.18 153.367 360.313 157.733 360.313 163.4C360.313 166.733 360.047 169.7 359.513 172.3C358.98 174.9 357.98 177.167 356.513 179.1C355.113 180.967 353.08 182.533 350.413 183.8L361.513 223H343.013L334.113 186.7H329.013V223H311.113ZM329.013 176.4H334.013C336.547 176.4 338.513 175.967 339.913 175.1C341.313 174.167 342.28 172.867 342.813 171.2C343.413 169.467 343.713 167.4 343.713 165C343.713 161.533 343.08 158.833 341.813 156.9C340.547 154.967 338.213 154 334.813 154H329.013V176.4Z" fill="white" fill-opacity="0.6"/>
</svg>
